<?xml version="1.0"?>
<svg version="1.1" xmlns="http://www.w3.org/2000/svg" width="212px" height="83px"><path fill="#" d="M51.44580078125,45.447265625q0-1.5146484375,0.126220703125-3.316162109375t0.447509765625-3.614501953125t0.9638671875-3.499755859375t1.65234375-3.00634765625t2.467041015625-2.099853515625t3.476806640625-0.7802734375q1.6064453125,0,2.96044921875,0.61962890625t2.36376953125,1.67529296875t1.572021484375,2.467041015625t0.562255859375,2.948974609375q0,0.4130859375-0.562255859375,0.516357421875t-0.791748046875,0.103271484375q-0.4130859375,0-0.791748046875-0.06884765625t-0.562255859375-0.55078125q-0.3212890625-0.89501953125-0.677001953125-1.8818359375t-0.8720703125-1.801513671875t-1.273681640625-1.342529296875q-0.6884765625-0.458984375-1.744140625-0.458984375l-0.18359375,0q-1.927734375,0.0458984375-2.86865234375,1.376953125t-1.296630859375,3.23583984375t-0.355712890625,4.0390625l0,3.78662109375q0,0.94091796875,0.06884765625,2.73095703125t0.332763671875,3.9013671875t0.6884765625,4.302978515625t1.1474609375,3.9931640625t1.732666015625,2.9375t2.4326171875,1.135986328125q1.26220703125,0,2.203125-0.8720703125t1.617919921875-2.237548828125t1.1474609375-3.05224609375t0.7802734375-3.385009765625t0.470458984375-3.155517578125t0.25244140625-2.398193359375q-0.25244140625-0.02294921875-0.48193359375-0.02294921875q-1.07861328125,0-2.111328125,0.34423828125q-1.30810546875,0.39013671875-2.6162109375,0.39013671875q-0.18359375,0-0.493408203125-0.02294921875t-0.585205078125-0.11474609375t-0.493408203125-0.263916015625t-0.218017578125-0.447509765625q0-0.52783203125,1.158935546875-0.89501953125t2.63916015625-0.631103515625t2.857177734375-0.378662109375t1.81298828125-0.11474609375q0.2294921875,0,0.654052734375,0.0458984375t0.84912109375,0.16064453125t0.722900390625,0.332763671875t0.29833984375,0.539306640625q0,0.275390625-0.20654296875,0.493408203125t-0.516357421875,0.332763671875t-0.631103515625,0.16064453125t-0.5048828125,0.0458984375q0.02294921875,0.52783203125,0.02294921875,1.07861328125q0,1.2392578125-0.06884765625,2.63916015625q-0.11474609375,2.01953125-0.458984375,4.0390625t-1.0556640625,3.92431640625t-1.81298828125,3.362060546875t-2.719482421875,2.352294921875t-3.843994140625,0.89501953125q-2.4326171875,0-4.10791015625-1.03271484375t-2.73095703125-2.75390625t-1.640869140625-3.9013671875t-0.837646484375-4.463623046875t-0.309814453125-4.440673828125t-0.057373046875-3.9013671875z M77.669184570312,53.2041015625l0-3.6259765625q0-3.763671875,0.126220703125-7.469970703125t0.218017578125-7.469970703125q0-0.71142578125-0.0458984375-1.58349609375q-0.02294921875-0.25244140625-0.02294921875-0.48193359375q0-0.57373046875,0.091796875-1.12451171875q0.11474609375-0.734375,0.562255859375-1.26220703125t1.480224609375-0.52783203125q0.84912109375,0,1.296630859375,0.18359375t0.631103515625,0.539306640625t0.20654296875,0.89501953125t0.02294921875,1.250732421875q0,3.8095703125-0.091796875,7.64208984375q-0.06884765625,2.54736328125-0.06884765625,5.0947265625q0,1.28515625,0.02294921875,2.5703125q0.0458984375,3.8095703125,0.355712890625,7.619140625t1.044189453125,7.52734375q2.294921875-0.091796875,4.58984375-0.2294921875t4.58984375-0.1376953125q0.2294921875,0,0.654052734375,0.0458984375t0.84912109375,0.16064453125t0.722900390625,0.29833984375t0.29833984375,0.52783203125q0,0.2294921875-0.20654296875,0.39013671875t-0.39013671875,0.25244140625l-0.0458984375,0q-0.3671875,0.18359375-1.457275390625,0.355712890625t-2.478515625,0.263916015625t-2.91455078125,0.16064453125t-2.86865234375,0.11474609375t-2.329345703125,0.06884765625t-1.21630859375,0.02294921875l-0.20654296875,0q-0.55078125,0-1.2392578125-0.18359375q-0.826171875-0.2294921875-1.03271484375-0.89501953125q-0.4130859375-1.6982421875-0.654052734375-3.522705078125t-0.3671875-3.706298828125t-0.126220703125-3.763671875z M98.499501953125,48.77490234375q0-1.35400390625,0.149169921875-3.28173828125t0.55078125-4.01611328125t1.07861328125-4.15380859375t1.732666015625-3.64892578125t2.5244140625-2.50146484375q1.21630859375-0.75732421875,2.7998046875-0.75732421875q0.3212890625,0,0.66552734375,0.0458984375q3.9931640625,0.3671875,6.138916015625,1.824462890625t3.132568359375,3.69482421875t1.1474609375,5.0947265625t0.16064453125,6.024169921875q0,2.54736328125-0.470458984375,5.542236328125t-1.663818359375,5.588134765625t-3.293212890625,4.325927734375t-5.335693359375,1.732666015625q-1.9736328125,0-3.453857421875-0.722900390625t-2.512939453125-1.927734375t-1.6982421875-2.7998046875t-1.009765625-3.3046875t-0.493408203125-3.453857421875t-0.149169921875-3.3046875z M103.15819335937,47.7421875q0,0.98681640625,0.02294921875,2.421142578125t0.195068359375,3.017822265625t0.447509765625,3.155517578125t0.814697265625,2.857177734375t1.365478515625,2.111328125t1.99658203125,0.8720703125l0.11474609375,0q1.0556640625,0,1.8818359375-0.80322265625q0.8720703125-0.84912109375,1.549072265625-2.04248046875t1.17041015625-2.512939453125t0.883544921875-2.260498046875l-0.091796875,0.20654296875q0.66552734375-2.111328125,0.89501953125-4.325927734375t0.2294921875-4.371826171875q0-1.03271484375-0.1376953125-2.489990234375t-0.447509765625-3.040771484375t-0.80322265625-3.132568359375t-1.250732421875-2.696533203125t-1.76708984375-1.744140625q-0.734375-0.43603515625-1.62939453125-0.458984375q-0.34423828125,0-0.6884765625,0.06884765625q-1.17041015625,0.2294921875-1.99658203125,1.1474609375t-1.342529296875,2.260498046875t-0.791748046875,2.9375t-0.424560546875,3.212890625t-0.172119140625,3.09814453125t-0.02294921875,2.512939453125z M113.50829101562,54.810546875l0-0.0458984375l0,0.0458984375z M123.32298339844,57.67919921875q0-4.97998046875,0.447509765625-9.971435546875t1.870361328125-9.833740234375q0.4130859375-1.44580078125,1.07861328125-2.857177734375t1.62939453125-2.512939453125t2.294921875-1.7900390625t3.1669921875-0.6884765625l0.48193359375,0.0458984375q1.9736328125,0.275390625,2.91455078125,1.594970703125t0.94091796875,3.293212890625q0,0.52783203125-0.126220703125,1.319580078125t-0.401611328125,1.526123046875t-0.745849609375,1.250732421875t-1.181884765625,0.516357421875q-0.3212890625-0.0458984375-0.585205078125-0.11474609375t-0.493408203125-0.29833984375q0.3671875-0.80322265625,0.654052734375-1.67529296875t0.286865234375-1.99658203125q0-0.4130859375-0.06884765625-1.0556640625t-0.263916015625-1.273681640625t-0.516357421875-1.1015625t-0.89501953125-0.470458984375q-1.44580078125,0-2.4326171875,1.617919921875t-1.65234375,4.130859375t-0.98681640625,5.5537109375t-0.493408203125,5.875t-0.195068359375,5.11767578125t-0.02294921875,3.224365234375q0,1.1015625-0.02294921875,2.4326171875l0,0.29833984375q0.02294921875,1.17041015625,0.16064453125,2.22607421875q0.18359375,1.193359375,0.71142578125,2.0654296875t1.65234375,1.009765625q0.34423828125,0.0458984375,0.66552734375,0.0458984375q1.3310546875,0,2.40966796875-0.75732421875q1.3310546875-0.94091796875,2.36376953125-2.444091796875t1.8359375-3.3046875t1.480224609375-3.407958984375t1.319580078125-2.662109375t1.3310546875-1.0556640625q0.2294921875,0,0.6884765625,0.091796875t0.458984375,0.43603515625q0,0.091796875-0.0458984375,0.25244140625t-0.11474609375,0.25244140625q-0.61962890625,2.4326171875-1.572021484375,5.048828125t-2.4326171875,4.761962890625t-3.6259765625,3.499755859375t-5.152099609375,1.35400390625q-2.1572265625,0-3.499755859375-0.814697265625t-2.0654296875-2.18017578125t-0.98681640625-3.086669921875t-0.263916015625-3.48828125z M147.64158203125,64.47216796875q0-0.1376953125,0.091796875-0.975341796875t0.240966796875-2.04248046875t0.332763671875-2.59326171875t0.3212890625-2.627685546875t0.240966796875-2.18017578125t0.103271484375-1.26220703125q-0.18359375-0.091796875-0.447509765625-0.263916015625t-0.263916015625-0.401611328125q0-0.3212890625,0.309814453125-0.516357421875t0.539306640625-0.286865234375q0.091796875-1.17041015625,0.2294921875-3.2587890625t0.424560546875-4.509521484375t0.80322265625-4.9111328125t1.365478515625-4.52099609375t2.04248046875-3.316162109375t2.9375-1.28515625t2.8916015625,1.1015625t1.870361328125,2.86865234375t1.1015625,3.92431640625t0.57373046875,4.29150390625t0.240966796875,3.9931640625t0.091796875,2.9833984375q0.0458984375,0.71142578125,0.34423828125,0.952392578125t0.654052734375,0.332763671875t0.642578125,0.20654296875t0.286865234375,0.57373046875q0,0.52783203125-0.642578125,0.734375t-1.009765625,0.25244140625q0.2294921875,2.86865234375,0.631103515625,5.6455078125t1.067138671875,5.599609375q0.091796875,0.52783203125,0.25244140625,1.067138671875t0.16064453125,1.044189453125q0,0.3671875-0.25244140625,0.608154296875t-0.654052734375,0.378662109375t-0.80322265625,0.18359375t-0.677001953125,0.0458984375q-1.03271484375,0-1.744140625-0.39013671875t-0.94091796875-1.49169921875q-0.61962890625-2.96044921875-1.21630859375-6.21923828125q-0.5048828125-2.82275390625-0.5048828125-5.48486328125q0-0.4130859375,0.02294921875-0.826171875q-1.927734375,0-3.87841796875,0.091796875t-3.74072265625,0.6884765625q-0.0458984375,0.61962890625-0.2294921875,2.3408203125t-0.4130859375,3.69482421875t-0.470458984375,3.775146484375t-0.286865234375,2.558837890625q-0.0458984375,0.3212890625-0.470458984375,0.608154296875t-0.91796875,0.309814453125t-0.8720703125-0.309814453125t-0.378662109375-1.181884765625z M151.9330859375,50.56494140625q1.7900390625-0.4130859375,3.591552734375-0.48193359375t3.637451171875-0.16064453125q-0.091796875-0.57373046875-0.0458984375-1.181884765625t0.0458984375-1.227783203125q0-1.35400390625-0.06884765625-3.14404296875t-0.20654296875-3.6259765625t-0.355712890625-3.614501953125t-0.493408203125-3.1669921875t-0.585205078125-2.214599609375t-0.677001953125-0.826171875q-0.71142578125,0.0458984375-1.342529296875,1.227783203125t-1.1474609375,3.00634765625t-0.94091796875,4.0849609375t-0.71142578125,4.417724609375t-0.470458984375,4.01611328125t-0.2294921875,2.8916015625z M170.81271972656,53.2041015625l0-3.6259765625q0-3.763671875,0.126220703125-7.469970703125t0.218017578125-7.469970703125q0-0.71142578125-0.0458984375-1.58349609375q-0.02294921875-0.25244140625-0.02294921875-0.48193359375q0-0.57373046875,0.091796875-1.12451171875q0.11474609375-0.734375,0.562255859375-1.26220703125t1.480224609375-0.52783203125q0.84912109375,0,1.296630859375,0.18359375t0.631103515625,0.539306640625t0.20654296875,0.89501953125t0.02294921875,1.250732421875q0,3.8095703125-0.091796875,7.64208984375q-0.06884765625,2.54736328125-0.06884765625,5.0947265625q0,1.28515625,0.02294921875,2.5703125q0.0458984375,3.8095703125,0.355712890625,7.619140625t1.044189453125,7.52734375q2.294921875-0.091796875,4.58984375-0.2294921875t4.58984375-0.1376953125q0.2294921875,0,0.654052734375,0.0458984375t0.84912109375,0.16064453125t0.722900390625,0.29833984375t0.29833984375,0.52783203125q0,0.2294921875-0.20654296875,0.39013671875t-0.39013671875,0.25244140625l-0.0458984375,0q-0.3671875,0.18359375-1.457275390625,0.355712890625t-2.478515625,0.263916015625t-2.91455078125,0.16064453125t-2.86865234375,0.11474609375t-2.329345703125,0.06884765625t-1.21630859375,0.02294921875l-0.20654296875,0q-0.55078125,0-1.2392578125-0.18359375q-0.826171875-0.2294921875-1.03271484375-0.89501953125q-0.4130859375-1.6982421875-0.654052734375-3.522705078125t-0.3671875-3.706298828125t-0.126220703125-3.763671875z"/><path fill="#" d=""/></svg>
